<svg version="1.1" xmlns="http://www.w3.org/2000/svg" xmlns:xlink="http://www.w3.org/1999/xlink" width="25" height="46"><defs/><g><path fill="rgb(110,109,107)" stroke="none" paint-order="stroke fill markers" fill-rule="evenodd" d=" M 10.09075927734375 19.615478992462158 C 10.56082534790039 18.411438941955566 9.957626342773438 17.808210849761963 9.42080307006836 17.808210849761963 C 6.941822052001953 17.808210849761963 3.7256507873535156 23.636462688446045 2.521636962890625 23.636462688446045 C 2.0514755249023438 23.636462688446045 1.6499786376953125 23.166390419006348 1.6499786376953125 22.764775276184082 C 1.6499786376953125 21.55845332145691 4.597309112548828 18.74620771408081 5.4688720703125 17.874520301818848 C 8.148124694824219 15.328720569610596 11.632278442382812 13.386148929595947 15.517452239990234 13.386148929595947 C 18.398406982421875 13.386148929595947 21.480968475341797 15.127107620239258 19.068363189697266 21.627044677734375 C 19.068363189697266 21.627044677734375 14.244773864746094 34.689738273620605 14.244773864746094 34.689738273620605 C 13.843276977539062 35.69444727897644 13.107040405273438 37.37084150314331 13.107040405273438 38.44226264953613 C 13.107040405273438 38.91005301475525 13.373210906982422 39.380125284194946 13.909557342529297 39.380125284194946 C 15.918949127197266 39.380125284194946 19.60470962524414 33.68502926826477 20.54312515258789 33.68502926826477 C 20.877864837646484 33.68502926826477 21.34564208984375 34.086510181427 21.34564208984375 34.689738273620605 C 21.34564208984375 36.632309913635254 13.508537292480469 44.93991780281067 6.741931915283203 44.93991780281067 C 4.329326629638672 44.93991780281067 2.654674530029297 43.80218720436096 2.654674530029297 41.25638747215271 C 2.654674530029297 38.0407817363739 4.932430267333984 32.54729866981506 5.402591705322266 31.407286167144775 C 5.402591705322266 31.407286167144775 10.09075927734375 19.615478992462158 10.09075927734375 19.615478992462158 Z M 13.707950592041016 6.417884588241577 C 13.707950592041016 3.470738172531128 16.25368881225586 1.0598392486572266 19.201400756835938 1.0598392486572266 C 21.882465362548828 1.0598392486572266 23.82509994506836 2.867107391357422 23.82509994506836 5.614922761917114 C 23.82509994506836 8.697641134262085 21.279361724853516 10.97538423538208 18.265274047851562 10.97538423538208 C 15.517452239990234 10.97538423538208 13.707950592041016 9.165834188461304 13.707950592041016 6.417884588241577 Z"/></g></svg>