<svg version="1.1" xmlns="http://www.w3.org/2000/svg" xmlns:xlink="http://www.w3.org/1999/xlink" width="43" height="43"><defs/><g><path fill="rgb(110,109,107)" stroke="none" paint-order="stroke fill markers" fill-rule="evenodd" d=" M 21.17047119140625 1.9907548427581787 C 32.25703048706055 1.9907548427581787 41.009090423583984 10.742797136306763 41.009090423583984 21.82909321784973 C 41.009090423583984 32.9157919883728 32.25703048706055 41.66783428192139 21.17047119140625 41.66783428192139 C 10.084102630615234 41.66783428192139 1.3320426940917969 32.9157919883728 1.3320426940917969 21.82909321784973 C 1.3320426940917969 10.742797136306763 10.084102630615234 1.9907548427581787 21.17047119140625 1.9907548427581787 Z M 10.258625030517578 20.954050064086914 C 10.376022338867188 18.445029258728027 11.075828552246094 15.294256448745728 12.242267608642578 12.14321517944336 C 10.491798400878906 11.384549140930176 8.915851593017578 10.568164348602295 7.69085693359375 9.692986965179443 C 5.007312774658203 12.668455839157104 3.374431610107422 16.578028917312622 3.1980972290039062 20.954050064086914 C 3.1980972290039062 20.954050064086914 10.258625030517578 20.954050064086914 10.258625030517578 20.954050064086914 Z M 3.1980972290039062 22.704404830932617 C 3.374431610107422 27.08042597770691 5.007312774658203 30.989999055862427 7.69085693359375 33.96546792984009 C 8.915851593017578 33.090290546417236 10.491798400878906 32.273905754089355 12.242267608642578 31.515373945236206 C 11.01717758178711 28.364332675933838 10.317276000976562 25.155572652816772 10.258625030517578 22.704404830932617 C 10.258625030517578 22.704404830932617 3.1980972290039062 22.704404830932617 3.1980972290039062 22.704404830932617 Z M 16.152618408203125 4.499507188796997 C 13.410327911376953 5.19938063621521 10.958431243896484 6.599932909011841 8.915851593017578 8.466933250427246 C 9.966514587402344 9.225465059280396 11.309097290039062 9.983996868133545 12.826297760009766 10.626017332077026 C 13.700626373291016 8.409214496612549 14.868782043457031 6.249996185302734 16.152618408203125 4.499507188796997 Z M 8.915851593017578 35.191521644592285 C 10.958431243896484 37.05852198600769 13.410327911376953 38.45907425880432 16.152618408203125 39.10002088546753 C 14.810035705566406 37.291813135147095 13.700626373291016 35.191521644592285 12.88504409790039 32.97377920150757 C 11.367938995361328 33.61553120613098 10.025165557861328 34.37406301498413 8.915851593017578 35.191521644592285 Z M 20.29452133178711 14.360957622528076 C 18.31078338623047 14.243506669998169 16.035030364990234 13.660413026809692 13.818119049072266 12.727248430252075 C 12.767646789550781 15.469560384750366 12.12649154663086 18.211872339248657 12.008903503417969 20.954050064086914 C 12.008903503417969 20.954050064086914 20.29452133178711 20.954050064086914 20.29452133178711 20.954050064086914 C 20.29452133178711 20.954050064086914 20.29452133178711 14.360957622528076 20.29452133178711 14.360957622528076 Z M 12.008903503417969 22.704404830932617 C 12.12649154663086 25.330071210861206 12.767646789550781 28.131041526794434 13.818119049072266 30.93201184272766 C 16.035030364990234 29.99804186820984 18.31078338623047 29.414948225021362 20.29452133178711 29.29830265045166 C 20.29452133178711 29.29830265045166 20.29452133178711 22.704404830932617 20.29452133178711 22.704404830932617 C 20.29452133178711 22.704404830932617 12.008903503417969 22.704404830932617 12.008903503417969 22.704404830932617 Z M 20.29452133178711 3.7997679710388184 C 19.710491180419922 3.7997679710388184 19.128082275390625 3.857755184173584 18.485305786132812 3.974400758743286 C 16.911170959472656 6.133350610733032 15.451000213623047 8.584518432617188 14.343402862548828 11.268037796020508 C 16.268394470214844 11.968582391738892 18.369529724121094 12.435298919677734 20.29452133178711 12.551944494247437 C 20.29452133178711 12.551944494247437 20.29452133178711 3.7997679710388184 20.29452133178711 3.7997679710388184 Z M 20.29452133178711 31.106510400772095 C 18.42827606201172 31.223155975341797 16.385791778564453 31.631885290145874 14.402149200439453 32.33175873756409 C 15.451000213623047 34.957425117492676 16.85242462158203 37.52523851394653 18.485305786132812 39.684054136276245 C 19.128082275390625 39.80069971084595 19.710491180419922 39.85855269432068 20.29452133178711 39.85855269432068 C 20.29452133178711 39.85855269432068 20.29452133178711 31.106510400772095 20.29452133178711 31.106510400772095 Z M 22.0447998046875 12.551944494247437 C 23.971603393554688 12.435298919677734 26.070926666259766 11.968582391738892 27.99591827392578 11.268037796020508 C 26.888320922851562 8.584518432617188 25.429962158203125 6.133350610733032 23.854015350341797 3.974400758743286 C 23.213050842285156 3.857755184173584 22.62902069091797 3.7997679710388184 22.0447998046875 3.7997679710388184 C 22.0447998046875 3.7997679710388184 22.0447998046875 12.551944494247437 22.0447998046875 12.551944494247437 Z M 22.0447998046875 20.954050064086914 C 22.0447998046875 20.954050064086914 30.33041763305664 20.954050064086914 30.33041763305664 20.954050064086914 C 30.214641571044922 18.211872339248657 29.57186508178711 15.469560384750366 28.521202087402344 12.727248430252075 C 26.304290771484375 13.660413026809692 24.02853775024414 14.243506669998169 22.0447998046875 14.360957622528076 C 22.0447998046875 14.360957622528076 22.0447998046875 20.954050064086914 22.0447998046875 20.954050064086914 Z M 22.0447998046875 22.704404830932617 C 22.0447998046875 22.704404830932617 22.0447998046875 29.29830265045166 22.0447998046875 29.29830265045166 C 24.02853775024414 29.414948225021362 26.304290771484375 29.99804186820984 28.521202087402344 30.93201184272766 C 29.57186508178711 28.131041526794434 30.214641571044922 25.330071210861206 30.33041763305664 22.704404830932617 C 30.33041763305664 22.704404830932617 22.0447998046875 22.704404830932617 22.0447998046875 22.704404830932617 Z M 22.0447998046875 39.85855269432068 C 22.62902069091797 39.85855269432068 23.213050842285156 39.80069971084595 23.854015350341797 39.684054136276245 C 25.486896514892578 37.52523851394653 26.888320922851562 34.957425117492676 27.938983917236328 32.33175873756409 C 25.955341339111328 31.631885290145874 23.912952423095703 31.223155975341797 22.0447998046875 31.106510400772095 C 22.0447998046875 31.106510400772095 22.0447998046875 39.85855269432068 22.0447998046875 39.85855269432068 Z M 33.42346954345703 8.466933250427246 C 31.381080627441406 6.599932909011841 28.930805206298828 5.19938063621521 26.188514709472656 4.499507188796997 C 27.47244644165039 6.249996185302734 28.638885498046875 8.409214496612549 29.513023376464844 10.626017332077026 C 31.030223846435547 9.983996868133545 32.372806549072266 9.225465059280396 33.42346954345703 8.466933250427246 Z M 26.188514709472656 39.10002088546753 C 28.930805206298828 38.45907425880432 31.381080627441406 37.05852198600769 33.42346954345703 35.191521644592285 C 32.31415557861328 34.37406301498413 30.973194122314453 33.61553120613098 29.45608901977539 32.97377920150757 C 28.638885498046875 35.191521644592285 27.529476165771484 37.291813135147095 26.188514709472656 39.10002088546753 Z M 39.1412239074707 20.954050064086914 C 38.96670150756836 16.578028917312622 37.332008361816406 12.668455839157104 34.64865493774414 9.692986965179443 C 33.42346954345703 10.568164348602295 31.847522735595703 11.384549140930176 30.097244262695312 12.14321517944336 C 31.263492584228516 15.294256448745728 31.965110778808594 18.445029258728027 32.08069610595703 20.954050064086914 C 32.08069610595703 20.954050064086914 39.1412239074707 20.954050064086914 39.1412239074707 20.954050064086914 Z M 32.08069610595703 22.704404830932617 C 32.02204513549805 25.155572652816772 31.32223892211914 28.364332675933838 30.097244262695312 31.515373945236206 C 31.847522735595703 32.273905754089355 33.42346954345703 33.090290546417236 34.64865493774414 33.96546792984009 C 37.332008361816406 30.989999055862427 38.96670150756836 27.08042597770691 39.1412239074707 22.704404830932617 C 39.1412239074707 22.704404830932617 32.08069610595703 22.704404830932617 32.08069610595703 22.704404830932617 Z"/></g></svg>