<svg version="1.1" xmlns="http://www.w3.org/2000/svg" xmlns:xlink="http://www.w3.org/1999/xlink" width="52" height="37"><defs/><g><path fill="rgb(110,109,107)" stroke="none" paint-order="stroke fill markers" fill-rule="evenodd" d=" M 49.8779182434082 35.0185763835907 C 49.8779182434082 35.0185763835907 2.715290069580078 35.0185763835907 2.715290069580078 35.0185763835907 C 2.179515838623047 35.0185763835907 1.7460708618164062 34.584611892700195 1.7460708618164062 34.04943823814392 C 1.7460708618164062 34.04943823814392 1.7460708618164062 2.608153820037842 1.7460708618164062 2.608153820037842 C 1.7460708618164062 2.0729801654815674 2.179515838623047 1.6390156745910645 2.715290069580078 1.6390156745910645 C 2.715290069580078 1.6390156745910645 49.8779182434082 1.6390156745910645 49.8779182434082 1.6390156745910645 C 50.413597106933594 1.6390156745910645 50.847137451171875 2.0729801654815674 50.847137451171875 2.608153820037842 C 50.847137451171875 2.608153820037842 50.847137451171875 34.04943823814392 50.847137451171875 34.04943823814392 C 50.847137451171875 34.584611892700195 50.413597106933594 35.0185763835907 49.8779182434082 35.0185763835907 Z M 48.0550651550293 33.08016586303711 C 48.0550651550293 33.08016586303711 33.78752517700195 14.550566673278809 33.78752517700195 14.550566673278809 C 33.78752517700195 14.550566673278809 26.32874298095703 19.545520782470703 26.32874298095703 19.545520782470703 C 26.32874298095703 19.545520782470703 18.751419067382812 14.484525680541992 18.751419067382812 14.484525680541992 C 18.751419067382812 14.484525680541992 4.456031799316406 33.08016586303711 4.456031799316406 33.08016586303711 C 4.456031799316406 33.08016586303711 48.0550651550293 33.08016586303711 48.0550651550293 33.08016586303711 Z M 3.68450927734375 30.902021169662476 C 3.68450927734375 30.902021169662476 17.13532257080078 13.405184984207153 17.13532257080078 13.405184984207153 C 17.13532257080078 13.405184984207153 3.68450927734375 4.421193838119507 3.68450927734375 4.421193838119507 C 3.68450927734375 4.421193838119507 3.68450927734375 30.902021169662476 3.68450927734375 30.902021169662476 Z M 5.910861968994141 3.5774261951446533 C 5.910861968994141 3.5774261951446533 26.298511505126953 17.19811248779297 26.298511505126953 17.19811248779297 C 26.298511505126953 17.19811248779297 46.6827278137207 3.5774261951446533 46.6827278137207 3.5774261951446533 C 46.6827278137207 3.5774261951446533 5.910861968994141 3.5774261951446533 5.910861968994141 3.5774261951446533 Z M 35.402191162109375 13.469078302383423 C 35.402191162109375 13.469078302383423 48.90869903564453 31.010210275650024 48.90869903564453 31.010210275650024 C 48.90869903564453 31.010210275650024 48.90869903564453 4.424012660980225 48.90869903564453 4.424012660980225 C 48.90869903564453 4.424012660980225 35.402191162109375 13.469078302383423 35.402191162109375 13.469078302383423 Z"/></g></svg>