<svg version="1.1" xmlns="http://www.w3.org/2000/svg" xmlns:xlink="http://www.w3.org/1999/xlink" width="57" height="49"><defs/><g><path fill="rgb(110,109,107)" stroke="none" paint-order="stroke fill markers" fill-rule="evenodd" d=" M 1.2443504333496094 18.809396982192993 C 1.2443504333496094 18.809396982192993 28.236862182617188 3.271911144256592 28.236862182617188 3.271911144256592 C 28.236862182617188 3.271911144256592 33.317752838134766 6.184828996658325 33.317752838134766 6.184828996658325 C 33.317752838134766 6.184828996658325 33.317752838134766 1.856459379196167 33.317752838134766 1.856459379196167 C 33.317752838134766 1.856459379196167 40.42634582519531 1.856459379196167 40.42634582519531 1.856459379196167 C 40.42634582519531 1.856459379196167 40.42634582519531 10.272390604019165 40.42634582519531 10.272390604019165 C 40.42634582519531 10.272390604019165 55.23347473144531 18.809396982192993 55.23347473144531 18.809396982192993 C 55.23347473144531 18.809396982192993 1.2443504333496094 18.809396982192993 1.2443504333496094 18.809396982192993 Z M 38.34180450439453 11.49320936203003 C 38.34180450439453 11.49320936203003 38.34180450439453 3.9410459995269775 38.34180450439453 3.9410459995269775 C 38.34180450439453 3.9410459995269775 35.41049575805664 3.9410459995269775 35.41049575805664 3.9410459995269775 C 35.41049575805664 3.9410459995269775 35.40229415893555 3.9537978172302246 35.40229415893555 3.9537978172302246 C 35.40229415893555 3.9537978172302246 35.40229415893555 9.803257942199707 35.40229415893555 9.803257942199707 C 35.40229415893555 9.803257942199707 28.212448120117188 5.696233034133911 28.212448120117188 5.696233034133911 C 28.212448120117188 5.696233034133911 9.061141967773438 16.724944591522217 9.061141967773438 16.724944591522217 C 9.061141967773438 16.724944591522217 47.428794860839844 16.724944591522217 47.428794860839844 16.724944591522217 C 47.428794860839844 16.724944591522217 38.34180450439453 11.49320936203003 38.34180450439453 11.49320936203003 Z M 48.532196044921875 47.629847288131714 C 48.532196044921875 47.629847288131714 29.80422592163086 47.629847288131714 29.80422592163086 47.629847288131714 C 29.80422592163086 47.629847288131714 29.80422592163086 36.70301604270935 29.80422592163086 36.70301604270935 C 29.80422592163086 36.70301604270935 29.79201889038086 36.69442534446716 29.79201889038086 36.69442534446716 C 29.79201889038086 36.69442534446716 24.46689224243164 36.69442534446716 24.46689224243164 36.69442534446716 C 24.46689224243164 36.69442534446716 24.45458984375 36.70301604270935 24.45458984375 36.70301604270935 C 24.45458984375 36.70301604270935 24.45458984375 47.629847288131714 24.45458984375 47.629847288131714 C 24.45458984375 47.629847288131714 7.689186096191406 47.629847288131714 7.689186096191406 47.629847288131714 C 7.689186096191406 47.629847288131714 7.689186096191406 20.441898107528687 7.689186096191406 20.441898107528687 C 7.689186096191406 20.441898107528687 48.532196044921875 20.441898107528687 48.532196044921875 20.441898107528687 C 48.532196044921875 20.441898107528687 48.532196044921875 47.629847288131714 48.532196044921875 47.629847288131714 Z M 46.447654724121094 22.526484727859497 C 46.447654724121094 22.526484727859497 46.435447692871094 22.526484727859497 46.435447692871094 22.526484727859497 C 46.435447692871094 22.526484727859497 9.773632049560547 22.526484727859497 9.773632049560547 22.526484727859497 C 9.773632049560547 22.526484727859497 9.773632049560547 45.52969002723694 9.773632049560547 45.52969002723694 C 9.773632049560547 45.52969002723694 9.773632049560547 45.54539489746094 9.773632049560547 45.54539489746094 C 9.773632049560547 45.54539489746094 22.37014389038086 45.54539489746094 22.37014389038086 45.54539489746094 C 22.37014389038086 45.54539489746094 22.37014389038086 34.60997295379639 22.37014389038086 34.60997295379639 C 22.37014389038086 34.60997295379639 31.88876724243164 34.60997295379639 31.88876724243164 34.60997295379639 C 31.88876724243164 34.60997295379639 31.88876724243164 45.52969002723694 31.88876724243164 45.52969002723694 C 31.88876724243164 45.52969002723694 31.892868041992188 45.54539489746094 31.892868041992188 45.54539489746094 C 31.892868041992188 45.54539489746094 46.447654724121094 45.54539489746094 46.447654724121094 45.54539489746094 C 46.447654724121094 45.54539489746094 46.447654724121094 22.526484727859497 46.447654724121094 22.526484727859497 Z M 42.262454986572266 32.0267231464386 C 42.262454986572266 32.0267231464386 34.31939697265625 32.0267231464386 34.31939697265625 32.0267231464386 C 34.31939697265625 32.0267231464386 34.31939697265625 24.535500049591064 34.31939697265625 24.535500049591064 C 34.31939697265625 24.535500049591064 42.262454986572266 24.535500049591064 42.262454986572266 24.535500049591064 C 42.262454986572266 24.535500049591064 42.262454986572266 32.0267231464386 42.262454986572266 32.0267231464386 Z M 11.772628784179688 24.535500049591064 C 11.772628784179688 24.535500049591064 19.71978759765625 24.535500049591064 19.71978759765625 24.535500049591064 C 19.71978759765625 24.535500049591064 19.71978759765625 32.0267231464386 19.71978759765625 32.0267231464386 C 19.71978759765625 32.0267231464386 11.772628784179688 32.0267231464386 11.772628784179688 32.0267231464386 C 11.772628784179688 32.0267231464386 11.772628784179688 24.535500049591064 11.772628784179688 24.535500049591064 Z"/></g></svg>